<svg id="Layer_1" data-name="Layer 1" xmlns="http://www.w3.org/2000/svg" viewBox="0 0 480 480"><defs><style>.cls-1{fill:#f68e56;}</style></defs><title>codeigniter Icons 6</title><g id="coding"><path class="cls-1" d="M472,112H384V24a8,8,0,0,0-8-8H136a8,8,0,0,0-8,8v88H40a24.07,24.07,0,0,0-24,24V392a24.07,24.07,0,0,0,24,24H198.56l-5.36,32H184a8.12,8.12,0,0,0-6.4,3.2l-24,32A8,8,0,0,0,160,496H352a8,8,0,0,0,6.4-12.8l-24-32A8.12,8.12,0,0,0,328,448h-9.2l-5.36-32H472a24.07,24.07,0,0,0,24-24V136A24.07,24.07,0,0,0,472,112ZM144,32H368V192H144ZM324,464l12,16H176l12-16ZM209.44,448l5.36-32h82.4l5.36,32ZM480,392a8,8,0,0,1-8,8H40a8,8,0,0,1-8-8V368H480Zm0-40H32V136a8,8,0,0,1,8-8h88v72a8,8,0,0,0,8,8H376a8,8,0,0,0,8-8V128h88a8,8,0,0,1,8,8Z" transform="translate(-16 -16)"/><path class="cls-1" d="M456,224H360a8,8,0,0,0-8,8v8H288v-8a8,8,0,0,0-8-8H232a8,8,0,0,0-8,8v8H160v-8a8,8,0,0,0-8-8H56a8,8,0,0,0-8,8v32a8,8,0,0,0,8,8h96a8,8,0,0,0,8-8v-8h64v8a8,8,0,0,0,8,8h16v16H232a8,8,0,0,0-8,8v32a8,8,0,0,0,8,8h48a8,8,0,0,0,8-8V296a8,8,0,0,0-8-8H264V272h16a8,8,0,0,0,8-8v-8h64v8a8,8,0,0,0,8,8h96a8,8,0,0,0,8-8V232A8,8,0,0,0,456,224ZM144,256H64V240h80Zm128,48v16H240V304Zm0-48H240V240h32Zm176,0H368V240h80Z" transform="translate(-16 -16)"/><path class="cls-1" d="M210.34,58.34l-48,48a8,8,0,0,0,0,11.32l48,48,11.32-11.32L179.31,112l42.35-42.34Z" transform="translate(-16 -16)"/><path class="cls-1" d="M301.66,58.34,290.34,69.66,332.69,112l-42.35,42.34,11.32,11.32,48-48a8,8,0,0,0,0-11.32Z" transform="translate(-16 -16)"/><rect class="cls-1" x="180.1" y="104" width="151.79" height="15.99" transform="translate(52.73 303.38) rotate(-71.55)"/></g></svg>